<svg width="622" height="188" viewBox="0 0 622 188" fill="none" xmlns="http://www.w3.org/2000/svg">
<path d="M547 1.59984e-05L547 68L1292 68C1309.67 68 1324 53.6732 1324 36L1324 32C1324 14.3269 1309.67 4.93359e-05 1292 4.85634e-05L547 1.59984e-05Z" fill="#555252"/>
<path d="M230 21L230 34L547 34L547 1.59984e-05L230 21Z" fill="#555252"/>
<path d="M230 34L230 21C228 17.4999 218.801 12.5 212 12.5C202 12.5 197.655 13.6334 190.5 18.9999C184.5 23.4999 181.833 28.1666 181 33.9999L230 34Z" fill="#555252"/>
<path d="M230 47L230 34L547 34L547 68L230 47Z" fill="#555252"/>
<path d="M230 34L230 47C228 50.5001 218.801 55.5 212 55.5C202 55.5 197.655 54.3666 190.5 49.0001C184.5 44.5001 181.833 39.8332 181 33.9999L230 34Z" fill="#555252"/>
<path d="M366 120L366 188L1111 188C1128.67 188 1143 173.673 1143 156L1143 152C1143 134.327 1128.67 120 1111 120L366 120Z" fill="#5E5C5C"/>
<path d="M49 141L49 154L366 154L366 120L49 141Z" fill="#5E5C5C"/>
<path d="M49 154L49 141C47 137.5 37.8006 132.5 31 132.5C21 132.5 16.6554 133.633 9.5 139C3.5 143.5 0.833332 148.167 -1.48618e-06 154L49 154Z" fill="#5E5C5C"/>
<path d="M49 167L49 154L366 154L366 188L49 167Z" fill="#5E5C5C"/>
<path d="M49 154L49 167C47 170.5 37.8006 175.5 31 175.5C21 175.5 16.6554 174.367 9.5 169C3.5 164.5 0.833332 159.833 -1.48618e-06 154L49 154Z" fill="#5E5C5C"/>
</svg>
