<svg width="150" height="150" viewBox="0 0 150 150" fill="none" xmlns="http://www.w3.org/2000/svg">
<circle cx="75" cy="75" r="74" stroke="#D36262" stroke-width="2"/>
<path d="M41.7682 122.62L40.9355 75.0781L41.7682 74.0401L43.2253 74.4553C43.5723 75.0781 44.2661 76.4068 44.2661 76.739C44.2661 77.0712 44.96 75.0781 45.3069 74.0401V71.9641L47.1804 72.7945H48.6375L47.1804 69.2652L49.8865 66.1511L52.5926 64.6979L53.0089 62.6218L55.2987 60.3382L54.2579 59.0925L54.466 57.0165L55.2987 54.9404L54.466 53.9024L56.5476 49.5427L58.8374 48.7123L59.8782 46.6362V41.8613L72.7842 24.2148H74.4495L75.9066 25.2529L75.4903 29.1974L77.9882 30.6506L80.278 29.1974L82.7759 28.5746L84.0249 27.5365L86.9392 27.9517V26.7061H89.4371L93.8085 30.6506L94.2248 32.3115L96.0982 33.3495V59.3001L96.7227 62.6218L96.0982 66.5663H97.7635L99.637 68.2272L100.47 68.85L101.927 68.2272L102.759 70.5108H101.302V71.9641L102.759 73.6249L101.302 75.4934L104.008 79.8531L105.465 78.3998L109.004 83.1748L106.09 84.2128L107.755 86.9116L110.253 85.666V87.5345L108.588 88.1573L107.131 90.4409H105.049L104.008 89.1953L103.176 90.8561H99.637L100.886 93.3474H98.8043L97.7635 93.9702C97.6248 93.209 97.3472 91.6451 97.3472 91.479C97.3472 91.3129 95.9595 92.2402 95.2656 92.7246V94.3854L94.0166 95.8387L92.9758 94.593V96.4615L92.1432 98.3299L91.1024 94.593L87.5636 93.9702L90.0616 99.1604L87.5636 98.3299L86.9392 101.029L85.6902 96.4615L85.2739 94.593L83.4004 96.4615V99.9908L81.527 99.1604L79.8617 95.8387V92.7246L75.9066 95.8387L76.3229 99.1604C75.6291 100.337 74.1997 102.814 74.0332 103.312C73.8666 103.811 74.5189 104.904 74.8658 105.389L72.7842 106.842L72.1597 105.804L70.2863 106.842L69.0373 104.35L67.372 109.956L66.5394 108.71V105.804L64.8741 109.541L64.2496 106.842L62.5843 108.087V104.35L60.0864 106.842L61.1272 108.71V112.862L59.4619 109.541L54.0497 113.693L54.8823 116.807L51.5518 117.845V120.959L47.8049 123.243L47.1804 126.979H44.058V124.281L41.7682 122.62Z" fill="#EBEBEB"/>
</svg>
