<svg width="45" height="49" viewBox="0 0 45 49" fill="none" xmlns="http://www.w3.org/2000/svg">
<path fill-rule="evenodd" clip-rule="evenodd" d="M19.5356 47.0488L13.5243 8.93303L43.5278 33.1969L28.7613 35.3244L19.5356 47.0488Z" fill="#BCFFDB"/>
<path d="M13.5243 8.93303L13.8387 8.54425L12.8278 7.7268L13.0304 9.01093L13.5243 8.93303ZM19.5356 47.0488L19.0417 47.1267L19.2202 48.2582L19.9286 47.358L19.5356 47.0488ZM43.5278 33.1969L43.5991 33.6918L44.7329 33.5285L43.8422 32.8081L43.5278 33.1969ZM28.7613 35.3244L28.69 34.8295L28.4921 34.8581L28.3684 35.0152L28.7613 35.3244ZM13.0304 9.01093L19.0417 47.1267L20.0295 46.9709L14.0182 8.85514L13.0304 9.01093ZM13.2099 9.32181L43.2134 33.5857L43.8422 32.8081L13.8387 8.54425L13.2099 9.32181ZM43.4565 32.702L28.69 34.8295L28.8326 35.8193L43.5991 33.6918L43.4565 32.702ZM19.9286 47.358L29.1543 35.6336L28.3684 35.0152L19.1427 46.7396L19.9286 47.358Z" fill="#7BBF9A"/>
</svg>
