<svg width="758" height="60" viewBox="0 0 758 60" fill="none" xmlns="http://www.w3.org/2000/svg">
<g opacity="0.5">
<path d="M739 22.0088C738.999 25.5088 739 30.0088 739 30.0088L726 30.0088L726 17.0088L734.999 17.0088C734.999 17.0088 736 22.0088 739 22.0088Z" fill="#838181"/>
<path d="M739 38.0088C738.999 34.5088 739 30.0088 739 30.0088L726 30.0088L726 43.0088L734.999 43.0088C734.999 43.0088 736 38.0088 739 38.0088Z" fill="#838181"/>
<path d="M738.999 22.0092C738.999 25.4292 738.999 30.0092 738.999 30.0092L757.499 30.0092C757.499 30.0092 755.999 24.2389 746.999 17.3065C746.078 16.5971 743.999 17.3065 743.999 17.3065C743.999 17.3065 743.999 22.0092 738.999 22.0092Z" fill="#838181"/>
<path d="M738.999 37.9908C738.999 34.5708 738.999 29.9908 738.999 29.9908L757.499 29.9908C757.499 29.9908 755.999 35.7611 746.999 42.6935C746.078 43.4029 743.999 42.6935 743.999 42.6935C743.999 42.6935 743.999 37.9908 738.999 37.9908Z" fill="#838181"/>
<rect x="721" y="17" width="26" height="91" transform="rotate(90 721 17)" fill="#838181"/>
<rect x="625" width="60" height="174" rx="7" transform="rotate(90 625 0)" fill="#646464"/>
<path d="M446 29.7559L-88 29.7559" stroke="#646464" stroke-width="31"/>
</g>
</svg>
